Coordinates
version=1
nRows=11
nColumns=46
inDegrees=yes

Units are S.I. units (second, meters, Newtons, ...)
Angles are in degrees.

endheader
time	pelvis_tilt	pelvis_list	pelvis_rotation	pelvis_tx	pelvis_ty	pelvis_tz	bb_angle	bb_tx	bb_ty	bb_tz	hip_flexion_r	hip_adduction_r	hip_rotation_r	knee_angle_r	knee_angle_r_beta	ankle_angle_r	subtalar_angle_r	mtp_angle_r	crank_angle_r	hip_flexion_l	hip_adduction_l	hip_rotation_l	knee_angle_l	knee_angle_l_beta	ankle_angle_l	subtalar_angle_l	mtp_angle_l	crank_angle_l	lumbar_extension	lumbar_bending	lumbar_rotation	arm_flex_r	arm_add_r	arm_rot_r	elbow_flex_r	pro_sup_r	wrist_flex_r	wrist_dev_r	arm_flex_l	arm_add_l	arm_rot_l	elbow_flex_l	pro_sup_l	wrist_flex_l	wrist_dev_l
      5.00500000	    -24.48526073	     -6.34259733	     -2.94172702	      0.42152927	      1.19612120	     -0.19968208	      0.00000000	      0.50000000	      0.00000000	      0.25000000	     79.03541840	     -1.53774380	     -9.74854295	    105.76631418	      1.84597042	    -18.77025636	    -13.65278040	      0.00000000	      0.00000000	     24.00977109	    -13.79148845	     -6.94024974	     16.96353815	      0.29606959	    -14.41516947	      1.82873424	      0.00000000	      0.00000000	    -59.68328527	      8.36566636	      0.81151971	     77.60605418	     -2.99761694	     49.93211223	     44.46187548	     56.96816973	      0.00000000	      0.00000000	     50.92294992	    -42.72425263	     25.34376618	     81.44838534	     55.29085583	      0.00000000	      0.00000000
      5.01000000	    -24.46078485	     -6.29551599	     -3.32482583	      0.42178465	      1.19755032	     -0.19944582	      0.00000000	      0.50000000	      0.00000000	      0.25000000	     79.74749750	     -1.09299731	     -9.57212450	    105.42556007	      1.84002314	    -18.74198182	    -13.67877287	      0.00000000	      0.00000000	     23.53909799	    -13.98713423	     -7.78927714	     17.42472940	      0.30411890	    -14.70196318	      1.84506136	      0.00000000	      0.00000000	    -59.88496392	      8.48808536	      1.15878824	     77.85293870	     -2.94458599	     50.04860327	     44.54084419	     56.98631757	      0.00000000	      0.00000000	     51.00847526	    -42.79510360	     25.46217284	     81.10041099	     55.25444525	      0.00000000	      0.00000000
      5.01500000	    -24.49771272	     -6.35806761	     -3.75067862	      0.42176825	      1.19886230	     -0.19870622	      0.00000000	      0.50000000	      0.00000000	      0.25000000	     80.43072521	     -0.53122891	     -9.54779049	    104.92307487	      1.83125312	    -18.73035403	    -13.76334799	      0.00000000	      0.00000000	     23.46467541	    -14.48631603	     -8.90383079	     18.57376310	      0.32417332	    -14.42629060	      2.57228680	      0.00000000	      0.00000000	    -60.00399404	      8.54408719	      1.79619665	     78.24805756	     -3.19304139	     50.74293004	     44.46983290	     57.04733627	      0.00000000	      0.00000000	     51.66358910	    -42.59409984	     26.34325653	     80.16097112	     55.22141818	      0.00000000	      0.00000000
      5.02000000	    -24.52085391	     -6.34004565	     -4.10161064	      0.42178768	      1.20058861	     -0.19845731	      0.00000000	      0.50000000	      0.00000000	      0.25000000	     80.88992577	     -0.04527089	     -9.40490874	    104.26687052	      1.81980019	    -18.42488380	    -13.69558557	      0.00000000	      0.00000000	     23.39234648	    -14.70855838	     -9.35167431	     19.63302520	      0.34266093	    -14.62493557	      1.90137250	      0.00000000	      0.00000000	    -60.30353290	      8.62387458	      2.15201268	     78.61780519	     -3.11545844	     50.79780608	     44.59114904	     57.06132647	      0.00000000	      0.00000000	     51.85035295	    -42.68938090	     26.41936823	     79.90566023	     55.19273407	      0.00000000	      0.00000000
      5.02500000	    -24.66260270	     -6.46475821	     -4.28185456	      0.42147757	      1.20210576	     -0.19809504	      0.00000000	      0.50000000	      0.00000000	      0.25000000	     81.33181716	      0.48729791	     -9.34848487	    103.45505432	      1.80563133	    -17.89229002	    -13.47410908	      0.00000000	      0.00000000	     23.82586352	    -15.11483638	     -9.44582417	     21.29467989	      0.37166228	    -14.34641183	      1.75952270	      0.00000000	      0.00000000	    -60.35768568	      8.87190825	      2.93215506	     79.14332641	     -3.80572469	     52.02284246	     44.69461664	     57.18297802	      0.00000000	      0.00000000	     53.18576874	    -42.29984249	     28.10096440	     78.47618828	     55.21265979	      0.00000000	      0.00000000
      5.03000000	    -24.85483421	     -6.47760409	     -4.49160901	      0.42125544	      1.20366194	     -0.19775569	      0.00000000	      0.50000000	      0.00000000	      0.25000000	     81.70659480	      0.95801505	     -9.20552448	    102.52375832	      1.78937714	    -17.28929938	    -13.23129614	      0.00000000	      0.00000000	     24.37211408	    -15.36877971	     -9.31638699	     23.02752191	      0.40190608	    -14.33551269	      1.04614883	      0.00000000	      0.00000000	    -60.53695415	      9.04001958	      3.25582527	     79.42290530	     -3.72427145	     51.96067077	     44.90997066	     57.18754698	      0.00000000	      0.00000000	     53.31701801	    -42.41675997	     28.17688545	     78.32587491	     55.20975440	      0.00000000	      0.00000000
      5.03500000	    -24.70447204	     -6.38383253	     -4.43490374	      0.42062011	      1.20577092	     -0.19709531	      0.00000000	      0.50000000	      0.00000000	      0.25000000	     81.65653209	      1.30297975	     -8.93123663	    101.54975400	      1.77237756	    -16.62244045	    -13.07661231	      0.00000000	      0.00000000	     24.82308095	    -15.46223557	     -8.91464939	     25.00266377	      0.43637880	    -14.41668103	      0.32627804	      0.00000000	      0.00000000	    -61.05865241	      9.17154208	      3.35422412	     79.82293200	     -3.59912073	     51.84047467	     45.09815005	     57.17990115	      0.00000000	      0.00000000	     53.76790731	    -42.64501847	     28.31597120	     78.19645725	     55.21051479	      0.00000000	      0.00000000
      5.04000000	    -25.08650096	     -6.47507337	     -4.62874138	      0.42026337	      1.20720771	     -0.19662019	      0.00000000	      0.50000000	      0.00000000	      0.25000000	     81.94341184	      1.76717215	     -8.89929394	    100.32373221	      1.75097945	    -15.93862598	    -12.81184734	      0.00000000	      0.00000000	     25.91306004	    -15.83027950	     -8.44882668	     27.20712761	      0.47485396	    -14.51048034	     -0.53658093	      0.00000000	      0.00000000	    -61.14276453	      9.37841929	      3.74800688	     80.06458344	     -3.51513470	     51.71619279	     45.31278062	     57.17933694	      0.00000000	      0.00000000	     53.93928107	    -42.80925527	     28.47202243	     78.11679872	     55.22600046	      0.00000000	      0.00000000
      5.04500000	    -25.23786115	     -6.39870162	     -4.63794013	      0.41989303	      1.20885120	     -0.19616411	      0.00000000	      0.50000000	      0.00000000	      0.25000000	     81.90049099	      2.12836946	     -8.65229558	     99.06597648	      1.72902747	    -15.13690388	    -12.63577985	      0.00000000	      0.00000000	     26.91211682	    -15.96612850	     -7.84107834	     29.53700030	      0.51551791	    -14.68855967	     -1.22004485	      0.00000000	      0.00000000	    -61.42785722	      9.49848061	      3.89717007	     80.32921050	     -3.45363416	     51.52377078	     45.58445688	     57.17898986	      0.00000000	      0.00000000	     54.24459798	    -42.93630403	     28.49447899	     78.09981797	     55.23195677	      0.00000000	      0.00000000
      5.05000000	    -25.46417343	     -6.35790531	     -4.53042142	      0.41940870	      1.21033602	     -0.19595539	      0.00000000	      0.50000000	      0.00000000	      0.25000000	     81.79482526	      2.31943289	     -8.49804822	     97.68036860	      1.70484405	    -14.30685289	    -12.28936418	      0.00000000	      0.00000000	     28.18501097	    -16.06119109	     -6.96752200	     32.05346558	      0.55943851	    -14.99247991	     -1.92360912	      0.00000000	      0.00000000	    -61.66558907	      9.74392219	      4.08210289	     80.51833297	     -3.37829925	     51.16631394	     45.89194082	     57.16155598	      0.00000000	      0.00000000	     54.46858210	    -43.02546268	     28.55570066	     78.16855896	     55.26120471	      0.00000000	      0.00000000
      5.05500000	    -25.63114450	     -6.22664239	     -4.48383574	      0.41913183	      1.21187444	     -0.19562131	      0.00000000	      0.50000000	      0.00000000	      0.25000000	     81.50693223	      2.52028736	     -8.27589853	     96.18189141	      1.67869069	    -13.51888452	    -12.11439463	      0.00000000	      0.00000000	     29.40020667	    -16.08156174	     -6.22041200	     34.58594466	      0.60363861	    -15.39169459	     -2.62861230	      0.00000000	      0.00000000	    -61.96813740	      9.85467512	      4.16097237	     80.66708821	     -3.36392137	     50.76327018	     46.35710124	     57.16319458	      0.00000000	      0.00000000	     54.64849189	    -43.12853227	     28.43231715	     78.30109718	     55.27963790	      0.00000000	      0.00000000
